<svg width="60" height="60" viewBox="0 0 60 60" fill="none" xmlns="http://www.w3.org/2000/svg">
<path d="M30.2255 24.3751C30.7228 24.3751 31.1997 24.5726 31.5513 24.9242C31.9029 25.2759 32.1005 25.7528 32.1005 26.2501V29.1601C32.1 33.6396 31.4017 38.0918 30.0305 42.3563L25.0392 57.8813C24.8781 58.3429 24.543 58.7232 24.1055 58.9413C23.6679 59.1594 23.1625 59.1979 22.697 59.0488C22.2314 58.8996 21.8425 58.5745 21.6132 58.1428C21.3838 57.7111 21.3322 57.2068 21.4692 56.7376L26.4567 41.2088C27.7087 37.3151 28.3463 33.2501 28.3467 29.1601V26.2501C28.3467 25.7528 28.5443 25.2759 28.8959 24.9242C29.2475 24.5726 29.7244 24.3751 30.2217 24.3751H30.2255Z" fill="white"/>
<path d="M22.7253 26.2501C22.7253 25.2651 22.9193 24.2899 23.2962 23.3799C23.6731 22.47 24.2255 21.6432 24.922 20.9468C25.6184 20.2503 26.4452 19.6979 27.3551 19.321C28.2651 18.9441 29.2404 18.7501 30.2253 18.7501C31.2102 18.7501 32.1854 18.9441 33.0954 19.321C34.0053 19.6979 34.8321 20.2503 35.5286 20.9468C36.225 21.6432 36.7775 22.47 37.1544 23.3799C37.5313 24.2899 37.7253 25.2651 37.7253 26.2501C37.7253 26.7473 37.5277 27.2243 37.1761 27.5759C36.8245 27.9275 36.3475 28.1251 35.8503 28.1251C35.353 28.1251 34.8761 27.9275 34.5244 27.5759C34.1728 27.2243 33.9753 26.7473 33.9753 26.2501C33.9753 25.2555 33.5802 24.3017 32.8769 23.5984C32.1737 22.8951 31.2198 22.5001 30.2253 22.5001C29.2307 22.5001 28.2769 22.8951 27.5736 23.5984C26.8704 24.3017 26.4753 25.2555 26.4753 26.2501V27.4951C26.4753 29.0276 26.3928 30.5538 26.2278 32.0738C26.1629 32.558 25.9116 32.9978 25.5273 33.2995C25.1431 33.6012 24.6563 33.741 24.1706 33.6892C23.6848 33.6374 23.2384 33.398 22.9265 33.0221C22.6145 32.6462 22.4616 32.1633 22.5003 31.6763C22.6503 30.2888 22.7253 28.8951 22.7253 27.4951V26.2501ZM35.884 30.0001C36.1303 30.0064 36.3729 30.0612 36.5979 30.1613C36.823 30.2614 37.0262 30.4049 37.1958 30.5835C37.3654 30.7622 37.4981 30.9725 37.5864 31.2025C37.6746 31.4324 37.7168 31.6776 37.7103 31.9238C37.5991 36.1834 36.8573 40.403 35.509 44.4451L30.7615 58.6951C30.6039 59.167 30.2652 59.5569 29.8201 59.7792C29.3749 60.0014 28.8597 60.0377 28.3878 59.8801C27.9158 59.7224 27.5259 59.3838 27.3036 58.9386C27.0814 58.4934 27.0451 57.9782 27.2028 57.5063L31.954 43.2563C33.1836 39.5663 33.8597 35.7145 33.9603 31.8263C33.9666 31.5801 34.0214 31.3375 34.1215 31.1124C34.2216 30.8873 34.3651 30.6842 34.5437 30.5146C34.7224 30.345 34.9327 30.2122 35.1627 30.124C35.3927 30.0357 35.6378 29.9936 35.884 30.0001ZM23.299 37.9313C23.5345 38.004 23.7534 38.1225 23.9431 38.2798C24.1327 38.4372 24.2895 38.6305 24.4045 38.8485C24.5194 39.0665 24.5902 39.3051 24.6129 39.5505C24.6356 39.7959 24.6096 40.0434 24.5365 40.2788L19.6503 56.0213C19.581 56.2607 19.4647 56.4839 19.3082 56.6778C19.1517 56.8718 18.9581 57.0326 18.7387 57.1508C18.5193 57.269 18.2785 57.3423 18.0305 57.3665C17.7824 57.3906 17.5321 57.365 17.294 57.2912C17.056 57.2174 16.835 57.0969 16.6441 56.9367C16.4532 56.7766 16.2961 56.58 16.182 56.3584C16.068 56.1368 15.9992 55.8947 15.9798 55.6462C15.9604 55.3978 15.9907 55.1479 16.069 54.9113L20.9553 39.1651C21.1029 38.691 21.4326 38.2948 21.872 38.0636C22.3114 37.8323 22.8246 37.7847 23.299 37.9313Z" fill="white"/>
<path d="M17.8472 21.8735C18.8829 18.9583 20.9147 16.5025 23.5844 14.9392C26.2541 13.3759 29.39 12.8056 32.4392 13.3289C35.4883 13.8522 38.2547 15.4354 40.2503 17.7994C42.246 20.1633 43.3428 23.1561 43.3472 26.2498C43.3472 26.747 43.1497 27.2239 42.7981 27.5756C42.4464 27.9272 41.9695 28.1248 41.4722 28.1248C40.9749 28.1248 40.498 27.9272 40.1464 27.5756C39.7948 27.2239 39.5972 26.747 39.5972 26.2498C39.5969 24.0384 38.8148 21.8983 37.3893 20.2077C35.9638 18.5172 33.9865 17.385 31.8069 17.0111C29.6274 16.6373 27.3859 17.046 25.4785 18.165C23.5711 19.2839 22.1207 21.0411 21.3835 23.126C21.2174 23.5949 20.8718 23.9787 20.4228 24.1928C19.9737 24.407 19.458 24.434 18.9891 24.2679C18.5202 24.1018 18.1364 23.7562 17.9223 23.3072C17.7081 22.8581 17.6811 22.3424 17.8472 21.8735ZM18.9722 28.136C19.467 28.1844 19.9222 28.4272 20.238 28.8112C20.5537 29.1951 20.7041 29.6887 20.656 30.1835C20.4033 32.7648 19.901 35.3154 19.156 37.7998L14.5735 53.0698C14.4308 53.5461 14.1046 53.9463 13.6669 54.1823C13.2291 54.4182 12.7155 54.4706 12.2391 54.3279C11.7627 54.1852 11.3625 53.859 11.1266 53.4213C10.8906 52.9835 10.8383 52.4699 10.981 51.9935L15.5635 36.7235C16.2395 34.4704 16.6954 32.1571 16.9247 29.816C16.9731 29.3213 17.216 28.866 17.5999 28.5502C17.9838 28.2345 18.4775 28.0879 18.9722 28.136ZM41.4722 30.5622C41.9695 30.5622 42.4464 30.7598 42.7981 31.1114C43.1497 31.4631 43.3472 31.94 43.3472 32.4372C43.3472 37.2372 42.5485 42.0072 40.9772 46.5448L36.8897 58.3385C36.7117 58.7875 36.3673 59.1505 35.9282 59.3518C35.4892 59.5531 34.9894 59.5773 34.533 59.4192C34.0766 59.2611 33.6988 58.9329 33.4784 58.5032C33.258 58.0734 33.2119 57.5752 33.3497 57.1122L37.4335 45.3185C38.866 41.1748 39.601 36.821 39.601 32.4372C39.601 31.94 39.7985 31.4631 40.1502 31.1114C40.5018 30.7598 40.9787 30.5622 41.476 30.5622H41.4722Z" fill="white"/>
<path d="M14.6326 15.8325C16.7173 12.7107 19.6911 10.2866 23.1691 8.87388C26.647 7.46118 30.4689 7.12496 34.1401 7.90873C34.3811 7.95995 34.6097 8.05814 34.8128 8.19771C35.016 8.33727 35.1896 8.51548 35.3238 8.72215C35.4581 8.92881 35.5503 9.1599 35.5952 9.40221C35.6401 9.64451 35.6369 9.8933 35.5857 10.1344C35.5345 10.3754 35.4363 10.604 35.2967 10.8071C35.1572 11.0102 34.9789 11.1839 34.7723 11.3181C34.5656 11.4524 34.3345 11.5446 34.0922 11.5895C33.8499 11.6344 33.6011 11.6312 33.3601 11.58C30.4225 10.9517 27.364 11.2199 24.5806 12.3498C21.7972 13.4797 19.4172 15.4194 17.7488 17.9175C17.4684 18.3213 17.0405 18.5987 16.5575 18.6902C16.0744 18.7816 15.5748 18.6796 15.1662 18.4062C14.7576 18.1328 14.4727 17.7099 14.3729 17.2285C14.2731 16.7471 14.3663 16.2458 14.6326 15.8325ZM39.8326 12.2512C40.1574 11.8749 40.6183 11.643 41.1141 11.6064C41.6098 11.5698 42.0998 11.7316 42.4763 12.0562C44.5168 13.8151 46.1535 15.9939 47.2745 18.4435C48.3954 20.8932 48.9742 23.556 48.9713 26.25V31.875C48.9713 32.3723 48.7738 32.8492 48.4221 33.2008C48.0705 33.5524 47.5936 33.75 47.0963 33.75C46.599 33.75 46.1221 33.5524 45.7705 33.2008C45.4189 32.8492 45.2213 32.3723 45.2213 31.875V26.25C45.2239 24.0946 44.7609 21.9641 43.8638 20.0043C42.9668 18.0445 41.6569 16.3016 40.0238 14.895C39.648 14.5697 39.4168 14.1084 39.3809 13.6127C39.3451 13.117 39.5075 12.6273 39.8326 12.2512ZM13.8001 21.9075C14.0439 21.9433 14.2783 22.0268 14.4898 22.1532C14.7014 22.2797 14.8859 22.4466 15.0329 22.6444C15.1799 22.8422 15.2864 23.0671 15.3464 23.3061C15.4064 23.5452 15.4187 23.7937 15.3826 24.0375C15.2726 24.76 15.2176 25.4975 15.2176 26.25C15.2176 28.9125 14.8426 31.5637 14.1001 34.125L9.82507 48.8362C9.761 49.0778 9.64928 49.3042 9.49646 49.502C9.34364 49.6998 9.15281 49.8651 8.9352 49.988C8.71758 50.111 8.47758 50.1892 8.22929 50.2181C7.98101 50.247 7.72945 50.2259 7.48942 50.1562C7.2494 50.0864 7.02574 49.9694 6.8316 49.8119C6.63747 49.6545 6.47678 49.4598 6.35898 49.2393C6.24118 49.0189 6.16864 48.7771 6.14565 48.5282C6.12265 48.2793 6.14965 48.0283 6.22507 47.79L10.5001 33.0787C11.1446 30.8598 11.4704 28.5606 11.4676 26.25C11.4676 25.3125 11.5351 24.3925 11.6701 23.49C11.7059 23.2461 11.7894 23.0117 11.9158 22.8002C12.0423 22.5887 12.2092 22.4041 12.407 22.2572C12.6048 22.1102 12.8297 22.0036 13.0687 21.9436C13.3078 21.8836 13.5563 21.8714 13.8001 21.9075ZM47.1076 35.6325C47.6028 35.6745 48.061 35.9114 48.3817 36.2911C48.7023 36.6708 48.8591 37.1622 48.8176 37.6575C48.5026 41.4075 47.7001 45.105 46.4176 48.66L43.6276 56.415C43.4536 56.8751 43.1058 57.2484 42.6592 57.4545C42.2125 57.6606 41.7028 57.6829 41.2399 57.5166C40.7769 57.3503 40.3979 57.0088 40.1844 56.5656C39.971 56.1224 39.9402 55.6131 40.0988 55.1475L42.8926 47.385C44.0582 44.1475 44.7945 40.7713 45.0826 37.3425C45.1246 36.8473 45.3614 36.389 45.7411 36.0684C46.1209 35.7477 46.6123 35.5909 47.1076 35.6325Z" fill="white"/>
<path d="M18.0361 5.13795C21.7418 2.99846 25.9454 1.87218 30.2243 1.87231C34.5033 1.87245 38.7069 2.999 42.4124 5.13873C46.118 7.27845 49.195 10.3559 51.3341 14.0618C53.4732 17.7678 54.5991 21.9715 54.5986 26.2504C54.5986 26.7477 54.401 27.2246 54.0494 27.5763C53.6978 27.9279 53.2208 28.1254 52.7236 28.1254C52.2263 28.1254 51.7494 27.9279 51.3977 27.5763C51.0461 27.2246 50.8486 26.7477 50.8486 26.2504C50.8498 22.6294 49.8977 19.0719 48.0879 15.9355C46.2782 12.7991 43.6747 10.1945 40.5391 8.38344C37.4035 6.57239 33.8463 5.61877 30.2253 5.61847C26.6043 5.61816 23.047 6.57118 19.9111 8.3817C19.4825 8.60586 18.984 8.65578 18.5195 8.52104C18.0551 8.3863 17.6607 8.07731 17.4186 7.65862C17.1766 7.23993 17.1057 6.74392 17.2208 6.2742C17.3358 5.80449 17.6279 5.39739 18.0361 5.13795ZM14.6986 9.8517C14.8823 10.0157 15.0318 10.2142 15.1388 10.436C15.2458 10.6578 15.308 10.8985 15.3219 11.1444C15.3358 11.3902 15.3012 11.6364 15.22 11.8689C15.1388 12.1013 15.0126 12.3155 14.8486 12.4992C11.4607 16.2775 9.59061 21.1757 9.59856 26.2504C9.59856 26.7477 9.40101 27.2246 9.04938 27.5763C8.69775 27.9279 8.22084 28.1254 7.72356 28.1254C7.22628 28.1254 6.74936 27.9279 6.39773 27.5763C6.0461 27.2246 5.84856 26.7477 5.84856 26.2504C5.84856 20.0104 8.19606 14.3104 12.0548 10.0017C12.2188 9.818 12.4174 9.66841 12.6392 9.56145C12.861 9.4545 13.1016 9.39228 13.3475 9.37835C13.5933 9.36442 13.8395 9.39906 14.072 9.48027C14.3044 9.56149 14.5149 9.6877 14.6986 9.8517ZM7.17981 30.0754C7.65796 30.2101 8.06315 30.5289 8.30641 30.962C8.54968 31.3951 8.61114 31.9071 8.47731 32.3854L5.55606 42.7617C5.49774 43.0075 5.39034 43.239 5.24031 43.4423C5.09028 43.6456 4.90072 43.8165 4.683 43.9447C4.46528 44.0728 4.2239 44.1557 3.97336 44.1883C3.72281 44.2208 3.46827 44.2024 3.22502 44.1342C2.98177 44.0659 2.75482 43.9492 2.55781 43.791C2.3608 43.6328 2.19779 43.4364 2.07857 43.2137C1.95935 42.9909 1.88638 42.7464 1.86403 42.4947C1.84169 42.243 1.87044 41.9895 1.94856 41.7492L4.86606 31.3729C4.9327 31.1358 5.04542 30.9141 5.19779 30.7205C5.35016 30.5269 5.53918 30.3652 5.75406 30.2447C5.96893 30.1242 6.20545 30.0473 6.45009 30.0182C6.69473 29.9892 6.94269 30.0086 7.17981 30.0754ZM52.7423 31.8792C52.9886 31.8841 53.2314 31.9374 53.457 32.0362C53.6827 32.1349 53.8866 32.2772 54.0573 32.4548C54.2279 32.6324 54.3619 32.8419 54.4515 33.0713C54.5412 33.3006 54.5848 33.5455 54.5798 33.7917C54.4673 39.4129 53.9761 45.1354 51.8536 50.7904L51.5911 51.4917C51.4074 51.9445 51.0542 52.3078 50.6067 52.5041C50.1592 52.7004 49.6527 52.7142 49.1952 52.5426C48.7376 52.3711 48.3651 52.0276 48.157 51.5855C47.9489 51.1433 47.9217 50.6374 48.0811 50.1754L48.3436 49.4742C50.2411 44.4117 50.7211 39.1992 50.8298 33.7167C50.8347 33.4705 50.888 33.2276 50.9868 33.002C51.0855 32.7763 51.2278 32.5724 51.4054 32.4017C51.583 32.2311 51.7925 32.0971 52.0219 32.0075C52.2513 31.9178 52.4961 31.8742 52.7423 31.8792Z" fill="white"/>
</svg>
