<svg width="100" height="100" viewBox="0 0 100 100" fill="none" xmlns="http://www.w3.org/2000/svg">
<path d="M50.6994 0.0046455C22.5805 -0.375126 -0.375145 22.5794 0.00464572 50.697C0.379628 77.6632 22.3378 99.6203 49.3053 99.9952C77.429 100.38 100.38 77.4252 99.9952 49.3077C99.6251 22.3367 77.6669 0.37961 50.6994 0.0046455ZM81.0875 78.6631C80.9917 78.7666 80.8743 78.8479 80.7437 78.901C80.6131 78.9541 80.4723 78.9778 80.3315 78.9705C80.1906 78.9632 80.0531 78.9249 79.9287 78.8585C79.8043 78.7921 79.696 78.6991 79.6116 78.5862C77.4615 75.7733 74.8285 73.3651 71.8355 71.4739C65.7156 67.5464 57.9611 65.3831 50.0023 65.3831C42.0436 65.3831 34.2891 67.5464 28.1692 71.4739C25.1763 73.3643 22.5433 75.7717 20.3931 78.5838C20.3087 78.6967 20.2004 78.7897 20.076 78.8561C19.9516 78.9225 19.814 78.9608 19.6732 78.9681C19.5324 78.9754 19.3916 78.9517 19.261 78.8986C19.1303 78.8455 19.013 78.7642 18.9172 78.6607C11.8639 71.0469 7.86845 61.0982 7.6966 50.721C7.30479 27.3314 26.4986 7.75392 49.899 7.69623C73.2994 7.63854 92.3081 26.6392 92.3081 49.9999C92.3162 60.6273 88.3083 70.8653 81.0875 78.6631Z" fill="#0E0949"/>
<path d="M50.0025 23.0791C45.2623 23.0791 40.9765 24.8554 37.9309 28.0835C34.8854 31.3115 33.3638 35.7751 33.7076 40.5655C34.4047 49.9997 41.7144 57.6913 50.0025 57.6913C58.2906 57.6913 65.5859 49.9997 66.2974 40.5679C66.6532 35.8231 65.1436 31.4005 62.0476 28.1123C58.9901 24.8674 54.7114 23.0791 50.0025 23.0791Z" fill="#0E0949"/>
</svg>
